<svg xmlns="http://www.w3.org/2000/svg" xml:space="preserve" style="enable-background:new 0 0 907.09 907.09" viewBox="0 0 907.09 907.09"><style>.st2{display:inline}.st2,.st3{fill:#1d2935}</style><path id="Layer_3" d="m666.14 574.09-425.2 333V-3.81h425.2v577.9z" style="fill:#faa91a"/><g id="Layer_2"><path d="m963.86 324.02-6.24-7.82-824.41 658.85 12.49 15.63 824.4-658.85z" class="st3"/><path d="m299.64 225.43 159.72 412.5c6.6 15.41 13.53 26.18 20.79 32.34 7.26 6.17 13.75 9.47 19.47 9.9v13.2c-14.09-.88-30.92-1.42-50.49-1.65-19.58-.22-39.5-.33-59.73-.33-21.12 0-41.15.11-60.06.33-18.92.23-34.1.77-45.54 1.65v-13.2c22.44-.88 36.73-4.72 42.9-11.55 6.16-6.82 4.84-21.45-3.96-43.89L213.18 325.09l13.2-19.8-96.36 248.82c-10.13 26.4-16.28 47.75-18.48 64.02-2.21 16.28-1.1 28.82 3.3 37.62 4.39 8.81 11.32 14.96 20.79 18.48 9.46 3.53 20.79 5.51 33.99 5.94v13.2c-15.41-.88-29.6-1.42-42.57-1.65-12.98-.22-26.96-.33-41.91-.33-8.81 0-17.72.11-26.73.33-9.02.23-16.83.77-23.43 1.65v-13.2c9.68-1.75 19.47-7.92 29.37-18.48 9.9-10.56 19.69-28.81 29.37-54.78l148.5-381.48c8.8.89 18.37 1.32 28.71 1.32 10.33 0 19.9-.43 28.71-1.32zm34.32 277.86v13.2H137.28l6.6-13.2h190.08zM689.04 217.51c27.28 0 48.4 2.75 63.36 8.25 14.95 5.51 27.72 11.33 38.28 17.49 5.28 3.08 9.57 5.39 12.87 6.93 3.3 1.55 6.49 2.31 9.57 2.31 4.39 0 7.59-2.41 9.57-7.26 1.98-4.84 3.63-12.1 4.95-21.78h15.18c-.44 8.81-.99 19.14-1.65 31.02-.66 11.88-1.1 27.62-1.32 47.19-.23 19.58-.33 45.44-.33 77.55h-15.18c-1.76-23.76-7.26-46.63-16.5-68.64-9.24-22-21.89-40.26-37.95-54.78-16.07-14.52-35.75-21.78-59.07-21.78-20.24 0-36.96 5.61-50.16 16.83-13.2 11.22-19.8 27.17-19.8 47.85 0 16.73 4.18 31.13 12.54 43.23 8.35 12.11 21.01 24.32 37.95 36.63 16.93 12.32 38.38 27.5 64.35 45.54 20.68 13.64 39.16 27.29 55.44 40.92 16.27 13.64 29.37 29.04 39.27 46.2 9.9 17.16 14.85 37.85 14.85 62.04 0 29.04-7.92 53.13-23.76 72.27-15.84 19.14-36.74 33.44-62.7 42.9-25.97 9.46-54.35 14.19-85.14 14.19-28.61 0-51.38-2.64-68.31-7.92-16.94-5.28-31.35-10.78-43.23-16.5-9.68-6.16-17.16-9.24-22.44-9.24-4.4 0-7.59 2.42-9.57 7.26-1.98 4.85-3.63 12.11-4.95 21.78h-15.18c.88-10.99 1.42-23.86 1.65-38.61.22-14.74.43-33.76.66-57.09.22-23.32.33-53.02.33-89.1h15.18c1.75 29.93 6.7 57.86 14.85 83.82 8.14 25.97 20.68 46.97 37.62 63.03 16.93 16.07 39.49 24.09 67.65 24.09 15.84 0 29.7-2.64 41.58-7.92 11.88-5.28 21.34-13.09 28.38-23.43 7.03-10.33 10.56-22.99 10.56-37.95 0-18.48-4.19-34.54-12.54-48.18-8.36-13.63-19.8-26.5-34.32-38.61-14.52-12.1-31.46-24.31-50.82-36.63-20.69-13.63-40.04-27.49-58.08-41.58-18.05-14.08-32.45-29.8-43.23-47.19-10.79-17.38-16.17-38.38-16.17-63.03 0-28.15 7.26-51.25 21.78-69.3 14.52-18.04 33.76-31.35 57.75-39.93 23.97-8.58 49.38-12.87 76.23-12.87z" class="st3"/></g></svg>