<svg xmlns="http://www.w3.org/2000/svg" xml:space="preserve" id="Layer_1" x="0" y="0" style="enable-background:new 0 0 907.09 907.09" version="1.1" viewBox="0 0 907.09 907.09"><style>.st1{fill:#1d2935}</style><path d="m666.14 575.46-425.2 290.37V0h425.2z" style="fill:#faa91a"/><path d="M302.27 254.42 452.31 641.3c5.78 14.06 11.98 24.08 18.6 30.07 6.61 6 12.6 9.2 17.98 9.61v12.4c-14.88-.82-32.24-1.34-52.08-1.55-19.84-.2-40.1-.31-60.76-.31-21.08 0-40.92.11-59.52.31-18.6.21-33.48.73-44.64 1.55v-12.4c21.08-.82 34.41-4.44 39.99-10.85 5.58-6.4 4.23-20.15-4.03-41.23l-99.2-274.66 12.4-21.7-85.56 222.58c-10.34 26.87-16.64 48.47-18.91 64.79-2.28 16.33-1.35 28.83 2.79 37.51 4.13 8.68 10.74 14.68 19.84 17.98 9.09 3.31 19.84 5.17 32.24 5.58v12.4c-15.3-.82-29.04-1.34-41.23-1.55-12.2-.2-25.53-.31-39.99-.31-7.86 0-16.23.11-25.11.31-8.89.21-16.43.73-22.63 1.55v-12.4c9.51-1.65 18.91-7.75 28.21-18.29s18.91-28.62 28.83-54.25l137.64-354.02c9.92.83 20.77 1.24 32.55 1.24 11.78-.01 22.63-.41 32.55-1.24zm21.7 260.39v12.4H139.21l6.2-12.4h178.56zM671.78 245.73c26.86 0 47.74 2.69 62.62 8.06 14.88 5.38 27.48 10.96 37.82 16.74 4.96 2.9 8.99 5.07 12.09 6.51 3.1 1.45 6.09 2.17 8.99 2.17 4.13 0 7.13-2.27 8.99-6.82 1.86-4.54 3.41-11.36 4.65-20.46h14.26c-.42 8.68-.93 18.81-1.55 30.38-.62 11.58-1.04 26.87-1.24 45.88-.21 19.02-.31 44.02-.31 75.02h-14.26c-1.66-22.73-6.93-44.84-15.81-66.34-8.89-21.49-21.08-39.26-36.58-53.32-15.5-14.05-34-21.08-55.49-21.08-18.19 0-33.28 4.96-45.26 14.88-11.99 9.92-17.98 24.18-17.98 42.78 0 15.3 3.72 28.42 11.16 39.37 7.44 10.96 19.11 22.43 35.03 34.41 15.91 11.99 36.89 27.08 62.93 45.26 18.6 12.82 35.44 25.63 50.53 38.44 15.08 12.82 27.17 27.28 36.27 43.4 9.09 16.12 13.64 35.55 13.64 58.28 0 27.7-7.75 50.64-23.25 68.82-15.5 18.19-36.07 31.73-61.69 40.61-25.63 8.88-53.53 13.33-83.7 13.33-28.11 0-50.53-2.48-67.27-7.44-16.74-4.96-30.9-10.12-42.47-15.5-9.1-5.78-16.12-8.68-21.08-8.68-4.14 0-7.13 2.28-8.99 6.82-1.86 4.55-3.41 11.37-4.65 20.46h-14.26c.82-10.74 1.34-23.25 1.55-37.51.2-14.26.41-32.75.62-55.49.2-22.73.31-51.66.31-86.8h14.26c1.65 28.94 6.3 56.01 13.95 81.22 7.64 25.22 19.42 45.57 35.34 61.07 15.91 15.5 37.09 23.25 63.55 23.25 15.29 0 28.41-2.37 39.37-7.13 10.95-4.75 19.53-11.67 25.73-20.77 6.2-9.09 9.3-20.04 9.3-32.86 0-17.36-3.93-32.55-11.78-45.57-7.86-13.02-18.5-25.21-31.93-36.58-13.44-11.36-29.04-22.83-46.81-34.41-19.43-13.22-37.62-26.45-54.56-39.68-16.95-13.22-30.49-28.1-40.61-44.64-10.13-16.53-15.19-36.16-15.19-58.9 0-27.28 7.23-49.49 21.7-66.65 14.46-17.15 33.48-29.86 57.04-38.13 23.56-8.26 48.56-12.4 75.02-12.4z" class="st1"/><path d="M137.642 924.654 931.22 380.915l11.304 16.498-793.578 543.74z" class="st1"/></svg>